<svg class="h-full" viewBox="0 0 130 20" fill="none" xmlns="http://www.w3.org/2000/svg"><g clip-path="url(#clip0_272_175)"><path d="M41.3536 15.4242L43.1204 7.16303C40.4463 6.63775 37.8676 6.39898 35.3367 6.39898C33.0446 6.39898 30.466 6.63774 27.6486 7.11527L25.8817 15.3765C28.6036 15.9018 31.1822 16.1405 33.6654 16.1405C36.0053 16.1405 38.5361 15.9018 41.3536 15.4242ZM43.789 17.7641C40.0165 18.5759 36.435 18.958 32.9491 18.958C29.4631 18.958 25.9772 18.5759 22.3958 17.7641L25.1654 4.77539C28.9379 3.9636 32.5671 3.58157 36.053 3.58157C39.539 3.58157 43.0249 3.9636 46.5586 4.77539L43.789 17.7641Z" fill="#61C3E1"></path><path d="M67.1401 17.8119C63.3676 18.5759 60.407 18.958 56.921 18.958C53.4351 18.958 49.9491 18.5759 46.3677 17.8119L49.4239 3.58157H52.3845L49.8536 15.4242C52.5756 15.9018 55.1542 16.1405 57.6373 16.1405C59.9295 16.1405 64.848 15.5675 67.6176 15.09L67.1401 17.8119Z" fill="#61C3E1"></path><path d="M72.8704 3.58157H75.7833L72.5361 18.958H69.5754L72.8704 3.58157Z" fill="#61C3E1"></path><path d="M90.6823 3.67691C93.643 3.77242 96.6514 4.15443 99.6599 4.82297L96.6514 19.0055H93.6908L96.2217 7.21061C94.1205 6.82859 92.1149 6.58983 90.1093 6.54207L87.4351 19.0533H84.4745L87.1486 6.54207C85.1908 6.58983 83.0897 6.82859 80.7975 7.21061L78.2666 19.0533H75.306L78.3144 4.87073C81.5616 4.20219 84.7132 3.82016 87.7694 3.72465L90.6823 3.67691Z" fill="#61C3E1"></path><path d="M103.05 3.58157H106.01L102.668 18.958H99.7071L103.05 3.58157Z" fill="#61C3E1"></path><path d="M108.16 4.72764C111.933 3.96359 115.514 3.58157 119 3.58157C122.486 3.58157 125.972 3.96359 129.553 4.72764L128.933 7.64055C125.829 6.92426 122.82 6.49449 120.003 6.39898L117.329 18.9102H114.368L116.994 6.44674C114.177 6.54224 111.025 6.97202 107.539 7.68831L108.16 4.72764Z" fill="#61C3E1"></path><path d="M19.8174 19.0054H16.2837C14.8511 16.1403 13.3708 13.1318 11.7472 11.365C10.1236 9.59814 8.45223 8.30882 6.68538 7.54477C6.54212 7.49702 6.39885 7.44927 6.25559 7.35377C6.11234 7.30601 5.92133 7.21051 5.77807 7.16276C5.68256 7.68804 5.63483 8.07006 5.58707 8.21332L3.24718 19.0054H0L3.4382 3.62906H6.25559C7.35391 4.01108 8.45223 4.53636 9.45503 5.1094C10.4578 5.73018 11.4607 6.44647 12.368 7.21051C13.2753 7.97456 14.1348 8.8341 14.9944 9.78916C15.8062 10.6965 16.5702 11.9858 17.2387 12.9886L17.7162 13.7049C17.764 13.2751 17.8118 12.9408 17.8595 12.7498L19.8174 3.62906H23.0646L19.8174 19.0054Z" fill="#61C3E1"></path><path d="M128.741 1.43254C128.741 1.00276 128.503 0.859497 128.025 0.859497H127.261V2.86512H127.595V2.00557H127.882L128.407 2.86512H128.789L128.216 2.00557C128.503 1.95782 128.741 1.81456 128.741 1.43254ZM127.548 1.71905V1.14602H127.93C128.121 1.14602 128.359 1.19377 128.359 1.43254C128.359 1.71905 128.168 1.76681 127.882 1.76681H127.548V1.71905Z" fill="#61C3E1"></path><path d="M127.93 0C126.975 0 126.163 0.716285 126.163 1.8146C126.163 2.86516 126.927 3.62921 127.93 3.62921C128.885 3.62921 129.696 2.91291 129.696 1.8146C129.696 0.716285 128.885 0 127.93 0ZM127.93 3.34269C127.07 3.34269 126.545 2.67415 126.545 1.86235C126.545 0.955051 127.166 0.382016 127.93 0.382016C128.694 0.382016 129.314 1.0028 129.314 1.86235C129.314 2.7219 128.694 3.34269 127.93 3.34269Z" fill="#61C3E1"></path></g></svg>